Coordinates
version=1
nRows=21
nColumns=12
inDegrees=yes

Units are S.I. units (second, meters, Newtons, ...)
Angles are in degrees

endheader
time	SC_y	SC_z	SC_x	AC_y	AC_z	AC_x	GH_y	GH_z	GH_yy	EL_x	PS_y
       0.0              -29.56          16.97          43.46          34.38         -16.61        -0.4481          75.01          53.72         -44.06          94.75          13.18
   0.03478              -29.56          16.97          43.45          34.39         -16.61        -0.4495          75.01          53.71         -44.04          94.76           13.2
   0.06957              -29.56          16.97          43.45          34.39         -16.61        -0.4509          75.03           53.7         -44.02          94.76          13.21
    0.1044              -29.57          16.97          43.45           34.4         -16.61        -0.4524          75.04          53.69         -43.99          94.77          13.23
    0.1391              -29.57          16.97          43.44           34.4         -16.61         -0.454          75.05          53.68         -43.97          94.78          13.25
    0.1739              -29.58          16.98          43.43          34.41         -16.61        -0.4557          75.06          53.67         -43.94          94.79          13.27
    0.2087              -29.58          16.98          43.43          34.41         -16.61        -0.4576          75.07          53.66         -43.91          94.79          13.29
    0.2435              -29.59          16.98          43.42          34.42         -16.61        -0.4595          75.09          53.65         -43.88           94.8          13.31
    0.2783              -29.59          16.98          43.42          34.43         -16.61        -0.4616           75.1          53.64         -43.85          94.81          13.34
    0.3131               -29.6          16.99          43.41          34.43         -16.61        -0.4639          75.12          53.62         -43.81          94.82          13.36
    0.3478               -29.6          16.99           43.4          34.44         -16.61        -0.4663          75.14          53.61         -43.77          94.84          13.39
    0.3826              -29.61          16.99          43.39          34.45         -16.61        -0.4689          75.15          53.59         -43.73          94.85          13.42
    0.4174              -29.61           17.0          43.38          34.46         -16.61        -0.4717          75.17          53.58         -43.69          94.86          13.45
    0.4522              -29.62           17.0          43.37          34.47         -16.61        -0.4748           75.2          53.56         -43.64          94.88          13.49
     0.487              -29.63          17.01          43.36          34.48         -16.61        -0.4781          75.22          53.54         -43.59          94.89          13.53
    0.5218              -29.64          17.01          43.35          34.49         -16.61        -0.4816          75.24          53.51         -43.53          94.91          13.57
    0.5566              -29.65          17.02          43.34           34.5         -16.61        -0.4855          75.27          53.49         -43.47          94.93          13.61
    0.5913              -29.66          17.02          43.33          34.52         -16.61        -0.4897           75.3          53.46          -43.4          94.95          13.66
    0.6261              -29.67          17.03          43.31          34.53         -16.61        -0.4943          75.34          53.44         -43.33          94.97          13.71
    0.6609              -29.68          17.03           43.3          34.55         -16.61        -0.4994          75.37          53.41         -43.25          94.99          13.77
    0.6957               -29.7          17.04          43.28          34.56         -16.61        -0.5049          75.41          53.37         -43.16          95.02          13.84
